<mxfile host="app.diagrams.net" modified="2023-11-12T06:59:02.578Z" agent="Mozilla/5.0 (Windows NT 10.0; Win64; x64) AppleWebKit/537.36 (KHTML, like Gecko) Chrome/119.0.0.0 Safari/537.36" etag="vCYUKql4XBiXAwdX7gwX" version="22.1.0" type="device">
  <diagram name="Page-1" id="90a13364-a465-7bf4-72fc-28e22215d7a0">
    <mxGraphModel dx="875" dy="576" grid="1" gridSize="10" guides="1" tooltips="1" connect="1" arrows="1" fold="1" page="1" pageScale="1.5" pageWidth="1169" pageHeight="826" background="none" math="0" shadow="0">
      <root>
        <mxCell id="0" style=";html=1;" />
        <mxCell id="1" style=";html=1;" parent="0" />
        <mxCell id="3a17f1ce550125da-1" value="FSM" style="whiteSpace=wrap;html=1;shadow=1;fontSize=20;fillColor=#f5f5f5;strokeColor=#666666;strokeWidth=2;dashed=1;" parent="1" vertex="1">
          <mxGeometry x="797" y="344" width="150" height="60" as="geometry" />
        </mxCell>
        <mxCell id="3a17f1ce550125da-8" value="&lt;font style=&quot;font-size: 15px;&quot;&gt;Kali(1)&lt;br&gt;&lt;br&gt;&lt;br&gt;&lt;br&gt;Jumlah(0)&lt;/font&gt;" style="whiteSpace=wrap;html=1;shadow=1;fontSize=18;fillColor=#f5f5f5;strokeColor=#666666;" parent="1" vertex="1">
          <mxGeometry x="630" y="450" width="87" height="126" as="geometry" />
        </mxCell>
        <mxCell id="Pq5rJUgJ74eUQiSko-AU-4" value="" style="endArrow=none;html=1;rounded=0;exitX=1.043;exitY=0.408;exitDx=0;exitDy=0;entryX=1;entryY=0.75;entryDx=0;entryDy=0;exitPerimeter=0;" edge="1" parent="1" source="Pq5rJUgJ74eUQiSko-AU-13">
          <mxGeometry width="50" height="50" relative="1" as="geometry">
            <mxPoint x="580" y="482" as="sourcePoint" />
            <mxPoint x="630" y="472" as="targetPoint" />
          </mxGeometry>
        </mxCell>
        <mxCell id="Pq5rJUgJ74eUQiSko-AU-6" value="" style="endArrow=none;html=1;rounded=0;" edge="1" parent="1">
          <mxGeometry width="50" height="50" relative="1" as="geometry">
            <mxPoint x="620" y="480" as="sourcePoint" />
            <mxPoint x="600" y="460" as="targetPoint" />
          </mxGeometry>
        </mxCell>
        <mxCell id="Pq5rJUgJ74eUQiSko-AU-9" value="" style="endArrow=none;html=1;rounded=0;entryX=-0.001;entryY=0.842;entryDx=0;entryDy=0;entryPerimeter=0;exitX=0.971;exitY=0.615;exitDx=0;exitDy=0;exitPerimeter=0;" edge="1" parent="1" source="Pq5rJUgJ74eUQiSko-AU-14" target="3a17f1ce550125da-8">
          <mxGeometry width="50" height="50" relative="1" as="geometry">
            <mxPoint x="580" y="560" as="sourcePoint" />
            <mxPoint x="620" y="560" as="targetPoint" />
          </mxGeometry>
        </mxCell>
        <mxCell id="Pq5rJUgJ74eUQiSko-AU-10" value="" style="endArrow=none;html=1;rounded=0;" edge="1" parent="1">
          <mxGeometry width="50" height="50" relative="1" as="geometry">
            <mxPoint x="620" y="566" as="sourcePoint" />
            <mxPoint x="600" y="546" as="targetPoint" />
          </mxGeometry>
        </mxCell>
        <mxCell id="Pq5rJUgJ74eUQiSko-AU-11" value="16" style="text;whiteSpace=wrap;html=1;" vertex="1" parent="1">
          <mxGeometry x="610" y="534" width="20" height="20" as="geometry" />
        </mxCell>
        <mxCell id="Pq5rJUgJ74eUQiSko-AU-13" value="X_in" style="text;whiteSpace=wrap;html=1;" vertex="1" parent="1">
          <mxGeometry x="550" y="461" width="30" height="26" as="geometry" />
        </mxCell>
        <mxCell id="Pq5rJUgJ74eUQiSko-AU-14" value="Y_in" style="text;whiteSpace=wrap;html=1;" vertex="1" parent="1">
          <mxGeometry x="550" y="540" width="30" height="26" as="geometry" />
        </mxCell>
        <mxCell id="Pq5rJUgJ74eUQiSko-AU-15" value="" style="endArrow=none;html=1;rounded=0;entryX=0.312;entryY=1.047;entryDx=0;entryDy=0;exitX=1;exitY=0.25;exitDx=0;exitDy=0;entryPerimeter=0;" edge="1" parent="1" source="3a17f1ce550125da-8" target="Pq5rJUgJ74eUQiSko-AU-70">
          <mxGeometry width="50" height="50" relative="1" as="geometry">
            <mxPoint x="750" y="490" as="sourcePoint" />
            <mxPoint x="800" y="483" as="targetPoint" />
          </mxGeometry>
        </mxCell>
        <mxCell id="Pq5rJUgJ74eUQiSko-AU-16" value="" style="endArrow=none;html=1;rounded=0;" edge="1" parent="1">
          <mxGeometry width="50" height="50" relative="1" as="geometry">
            <mxPoint x="767" y="490" as="sourcePoint" />
            <mxPoint x="747" y="470" as="targetPoint" />
          </mxGeometry>
        </mxCell>
        <mxCell id="Pq5rJUgJ74eUQiSko-AU-17" value="32" style="text;whiteSpace=wrap;html=1;" vertex="1" parent="1">
          <mxGeometry x="757" y="454" width="20" height="20" as="geometry" />
        </mxCell>
        <mxCell id="Pq5rJUgJ74eUQiSko-AU-18" value="X_Kali" style="text;whiteSpace=wrap;html=1;" vertex="1" parent="1">
          <mxGeometry x="720" y="480" width="43" height="26" as="geometry" />
        </mxCell>
        <mxCell id="Pq5rJUgJ74eUQiSko-AU-19" value="X_Sum&lt;br&gt;" style="text;whiteSpace=wrap;html=1;" vertex="1" parent="1">
          <mxGeometry x="720" y="534" width="43" height="26" as="geometry" />
        </mxCell>
        <mxCell id="Pq5rJUgJ74eUQiSko-AU-27" value="&lt;font style=&quot;font-size: 10px;&quot;&gt;Compare&lt;/font&gt;" style="whiteSpace=wrap;html=1;shadow=1;fontSize=18;fillColor=#f5f5f5;strokeColor=#666666;" vertex="1" parent="1">
          <mxGeometry x="970" y="477" width="50" height="60" as="geometry" />
        </mxCell>
        <mxCell id="Pq5rJUgJ74eUQiSko-AU-28" value="" style="endArrow=none;html=1;rounded=0;entryX=0;entryY=0.25;entryDx=0;entryDy=0;exitX=0.466;exitY=-0.015;exitDx=0;exitDy=0;exitPerimeter=0;" edge="1" parent="1" source="Pq5rJUgJ74eUQiSko-AU-70" target="Pq5rJUgJ74eUQiSko-AU-27">
          <mxGeometry width="50" height="50" relative="1" as="geometry">
            <mxPoint x="880" y="509" as="sourcePoint" />
            <mxPoint x="956.9999999999998" y="505.9999999999999" as="targetPoint" />
          </mxGeometry>
        </mxCell>
        <mxCell id="Pq5rJUgJ74eUQiSko-AU-29" value="" style="endArrow=none;html=1;rounded=0;" edge="1" parent="1">
          <mxGeometry width="50" height="50" relative="1" as="geometry">
            <mxPoint x="930" y="504.75" as="sourcePoint" />
            <mxPoint x="910" y="484.75" as="targetPoint" />
          </mxGeometry>
        </mxCell>
        <mxCell id="Pq5rJUgJ74eUQiSko-AU-30" value="32" style="text;whiteSpace=wrap;html=1;" vertex="1" parent="1">
          <mxGeometry x="920" y="470" width="20" height="20" as="geometry" />
        </mxCell>
        <mxCell id="Pq5rJUgJ74eUQiSko-AU-32" value="" style="endArrow=none;html=1;rounded=0;entryX=0.03;entryY=0.851;entryDx=0;entryDy=0;entryPerimeter=0;" edge="1" parent="1" target="Pq5rJUgJ74eUQiSko-AU-27">
          <mxGeometry width="50" height="50" relative="1" as="geometry">
            <mxPoint x="910" y="528" as="sourcePoint" />
            <mxPoint x="940" y="540" as="targetPoint" />
          </mxGeometry>
        </mxCell>
        <mxCell id="Pq5rJUgJ74eUQiSko-AU-33" value="" style="endArrow=none;html=1;rounded=0;" edge="1" parent="1">
          <mxGeometry width="50" height="50" relative="1" as="geometry">
            <mxPoint x="947" y="537" as="sourcePoint" />
            <mxPoint x="927" y="517" as="targetPoint" />
          </mxGeometry>
        </mxCell>
        <mxCell id="Pq5rJUgJ74eUQiSko-AU-34" value="16" style="text;whiteSpace=wrap;html=1;" vertex="1" parent="1">
          <mxGeometry x="930" y="503" width="20" height="20" as="geometry" />
        </mxCell>
        <mxCell id="Pq5rJUgJ74eUQiSko-AU-35" value="&lt;font style=&quot;font-size: 10px;&quot;&gt;Batas&lt;/font&gt;" style="text;whiteSpace=wrap;html=1;" vertex="1" parent="1">
          <mxGeometry x="877" y="514" width="30" height="26" as="geometry" />
        </mxCell>
        <mxCell id="Pq5rJUgJ74eUQiSko-AU-38" value="&lt;font style=&quot;font-size: 10px;&quot;&gt;Modulo&lt;/font&gt;" style="whiteSpace=wrap;html=1;shadow=1;fontSize=18;fillColor=#f5f5f5;strokeColor=#666666;" vertex="1" parent="1">
          <mxGeometry x="950" y="610" width="50" height="60" as="geometry" />
        </mxCell>
        <mxCell id="Pq5rJUgJ74eUQiSko-AU-44" value="" style="endArrow=none;html=1;rounded=0;labelBackgroundColor=default;strokeColor=default;align=center;verticalAlign=middle;fontFamily=Helvetica;fontSize=11;fontColor=default;shape=connector;exitX=1;exitY=0.5;exitDx=0;exitDy=0;" edge="1" parent="1" source="Pq5rJUgJ74eUQiSko-AU-27">
          <mxGeometry width="50" height="50" relative="1" as="geometry">
            <mxPoint x="1050" y="550" as="sourcePoint" />
            <mxPoint x="1050" y="507" as="targetPoint" />
          </mxGeometry>
        </mxCell>
        <mxCell id="Pq5rJUgJ74eUQiSko-AU-46" value="" style="endArrow=none;html=1;rounded=0;labelBackgroundColor=default;strokeColor=default;align=center;verticalAlign=middle;fontFamily=Helvetica;fontSize=11;fontColor=default;shape=connector;" edge="1" parent="1">
          <mxGeometry width="50" height="50" relative="1" as="geometry">
            <mxPoint x="1050" y="520" as="sourcePoint" />
            <mxPoint x="1050" y="370" as="targetPoint" />
          </mxGeometry>
        </mxCell>
        <mxCell id="Pq5rJUgJ74eUQiSko-AU-48" value="" style="endArrow=classic;html=1;rounded=0;labelBackgroundColor=default;strokeColor=default;align=center;verticalAlign=middle;fontFamily=Helvetica;fontSize=11;fontColor=default;shape=connector;" edge="1" parent="1">
          <mxGeometry width="50" height="50" relative="1" as="geometry">
            <mxPoint x="1050" y="370" as="sourcePoint" />
            <mxPoint x="950" y="370" as="targetPoint" />
          </mxGeometry>
        </mxCell>
        <mxCell id="Pq5rJUgJ74eUQiSko-AU-49" value="" style="endArrow=none;html=1;rounded=0;labelBackgroundColor=default;strokeColor=default;align=center;verticalAlign=middle;fontFamily=Helvetica;fontSize=11;fontColor=default;shape=connector;" edge="1" parent="1">
          <mxGeometry width="50" height="50" relative="1" as="geometry">
            <mxPoint x="1050" y="570" as="sourcePoint" />
            <mxPoint x="1050" y="520" as="targetPoint" />
          </mxGeometry>
        </mxCell>
        <mxCell id="Pq5rJUgJ74eUQiSko-AU-50" value="" style="endArrow=none;html=1;rounded=0;labelBackgroundColor=default;strokeColor=default;align=center;verticalAlign=middle;fontFamily=Helvetica;fontSize=11;fontColor=default;shape=connector;" edge="1" parent="1">
          <mxGeometry width="50" height="50" relative="1" as="geometry">
            <mxPoint x="980" y="570" as="sourcePoint" />
            <mxPoint x="1050" y="570" as="targetPoint" />
          </mxGeometry>
        </mxCell>
        <mxCell id="Pq5rJUgJ74eUQiSko-AU-51" value="" style="endArrow=none;html=1;rounded=0;labelBackgroundColor=default;strokeColor=default;align=center;verticalAlign=middle;fontFamily=Helvetica;fontSize=11;fontColor=default;shape=connector;exitX=0.617;exitY=-0.036;exitDx=0;exitDy=0;exitPerimeter=0;" edge="1" parent="1" source="Pq5rJUgJ74eUQiSko-AU-38">
          <mxGeometry width="50" height="50" relative="1" as="geometry">
            <mxPoint x="930" y="640" as="sourcePoint" />
            <mxPoint x="980" y="570" as="targetPoint" />
          </mxGeometry>
        </mxCell>
        <mxCell id="Pq5rJUgJ74eUQiSko-AU-52" value="" style="endArrow=none;html=1;rounded=0;exitX=1;exitY=0.5;exitDx=0;exitDy=-5;exitPerimeter=0;" edge="1" parent="1">
          <mxGeometry width="50" height="50" relative="1" as="geometry">
            <mxPoint x="1000" y="629" as="sourcePoint" />
            <mxPoint x="1040" y="630" as="targetPoint" />
          </mxGeometry>
        </mxCell>
        <mxCell id="Pq5rJUgJ74eUQiSko-AU-53" value="" style="endArrow=none;html=1;rounded=0;" edge="1" parent="1">
          <mxGeometry width="50" height="50" relative="1" as="geometry">
            <mxPoint x="1020" y="640" as="sourcePoint" />
            <mxPoint x="1010" y="620" as="targetPoint" />
          </mxGeometry>
        </mxCell>
        <mxCell id="Pq5rJUgJ74eUQiSko-AU-54" value="32" style="text;whiteSpace=wrap;html=1;" vertex="1" parent="1">
          <mxGeometry x="1020" y="610" width="20" height="20" as="geometry" />
        </mxCell>
        <mxCell id="Pq5rJUgJ74eUQiSko-AU-55" value="" style="endArrow=none;html=1;rounded=0;exitX=1;exitY=0.5;exitDx=0;exitDy=-5;exitPerimeter=0;" edge="1" parent="1">
          <mxGeometry width="50" height="50" relative="1" as="geometry">
            <mxPoint x="1000" y="659" as="sourcePoint" />
            <mxPoint x="1040" y="660" as="targetPoint" />
          </mxGeometry>
        </mxCell>
        <mxCell id="Pq5rJUgJ74eUQiSko-AU-56" value="" style="endArrow=none;html=1;rounded=0;" edge="1" parent="1">
          <mxGeometry width="50" height="50" relative="1" as="geometry">
            <mxPoint x="1020" y="670" as="sourcePoint" />
            <mxPoint x="1010" y="650" as="targetPoint" />
          </mxGeometry>
        </mxCell>
        <mxCell id="Pq5rJUgJ74eUQiSko-AU-57" value="17" style="text;whiteSpace=wrap;html=1;" vertex="1" parent="1">
          <mxGeometry x="1020" y="640" width="20" height="20" as="geometry" />
        </mxCell>
        <mxCell id="Pq5rJUgJ74eUQiSko-AU-59" value="X_reg" style="text;whiteSpace=wrap;html=1;fontSize=10;" vertex="1" parent="1">
          <mxGeometry x="1040" y="614" width="30" height="26" as="geometry" />
        </mxCell>
        <mxCell id="Pq5rJUgJ74eUQiSko-AU-60" value="P" style="text;whiteSpace=wrap;html=1;fontSize=10;" vertex="1" parent="1">
          <mxGeometry x="1040" y="644" width="30" height="26" as="geometry" />
        </mxCell>
        <mxCell id="Pq5rJUgJ74eUQiSko-AU-63" value="16" style="text;whiteSpace=wrap;html=1;" vertex="1" parent="1">
          <mxGeometry x="950" y="680" width="20" height="20" as="geometry" />
        </mxCell>
        <mxCell id="Pq5rJUgJ74eUQiSko-AU-64" value="" style="endArrow=none;html=1;rounded=0;exitX=0.5;exitY=1;exitDx=0;exitDy=0;entryX=0.5;entryY=0;entryDx=0;entryDy=0;" edge="1" parent="1" source="Pq5rJUgJ74eUQiSko-AU-38" target="Pq5rJUgJ74eUQiSko-AU-84">
          <mxGeometry width="50" height="50" relative="1" as="geometry">
            <mxPoint x="977" y="670" as="sourcePoint" />
            <mxPoint x="977" y="720" as="targetPoint" />
          </mxGeometry>
        </mxCell>
        <mxCell id="Pq5rJUgJ74eUQiSko-AU-65" value="" style="endArrow=none;html=1;rounded=0;" edge="1" parent="1">
          <mxGeometry width="50" height="50" relative="1" as="geometry">
            <mxPoint x="990" y="690" as="sourcePoint" />
            <mxPoint x="970" y="700" as="targetPoint" />
          </mxGeometry>
        </mxCell>
        <mxCell id="Pq5rJUgJ74eUQiSko-AU-70" value="" style="shape=trapezoid;perimeter=trapezoidPerimeter;whiteSpace=wrap;html=1;fixedSize=1;fontFamily=Helvetica;fontSize=11;fontColor=default;rotation=90;" vertex="1" parent="1">
          <mxGeometry x="790" y="480" width="68.25" height="29.5" as="geometry" />
        </mxCell>
        <mxCell id="Pq5rJUgJ74eUQiSko-AU-73" value="&lt;span style=&quot;color: rgb(0, 0, 0); font-family: Helvetica; font-size: 10px; font-style: normal; font-variant-ligatures: normal; font-variant-caps: normal; font-weight: 400; letter-spacing: normal; orphans: 2; text-align: center; text-indent: 0px; text-transform: none; widows: 2; word-spacing: 0px; -webkit-text-stroke-width: 0px; background-color: rgb(251, 251, 251); text-decoration-thickness: initial; text-decoration-style: initial; text-decoration-color: initial; float: none; display: inline !important;&quot;&gt;0&lt;/span&gt;" style="text;whiteSpace=wrap;html=1;fontSize=11;fontFamily=Helvetica;fontColor=default;" vertex="1" parent="1">
          <mxGeometry x="814" y="467" width="10" height="20" as="geometry" />
        </mxCell>
        <mxCell id="Pq5rJUgJ74eUQiSko-AU-74" value="&lt;span style=&quot;color: rgb(0, 0, 0); font-family: Helvetica; font-size: 10px; font-style: normal; font-variant-ligatures: normal; font-variant-caps: normal; font-weight: 400; letter-spacing: normal; orphans: 2; text-align: center; text-indent: 0px; text-transform: none; widows: 2; word-spacing: 0px; -webkit-text-stroke-width: 0px; background-color: rgb(251, 251, 251); text-decoration-thickness: initial; text-decoration-style: initial; text-decoration-color: initial; float: none; display: inline !important;&quot;&gt;1&lt;/span&gt;" style="text;whiteSpace=wrap;html=1;fontSize=11;fontFamily=Helvetica;fontColor=default;" vertex="1" parent="1">
          <mxGeometry x="814" y="497" width="10" height="20" as="geometry" />
        </mxCell>
        <mxCell id="Pq5rJUgJ74eUQiSko-AU-76" style="edgeStyle=orthogonalEdgeStyle;shape=connector;rounded=0;orthogonalLoop=1;jettySize=auto;html=1;entryX=0.066;entryY=0.412;entryDx=0;entryDy=0;entryPerimeter=0;labelBackgroundColor=default;strokeColor=default;align=center;verticalAlign=middle;fontFamily=Helvetica;fontSize=11;fontColor=default;endArrow=classic;" edge="1" parent="1" source="3a17f1ce550125da-1" target="Pq5rJUgJ74eUQiSko-AU-70">
          <mxGeometry relative="1" as="geometry" />
        </mxCell>
        <mxCell id="Pq5rJUgJ74eUQiSko-AU-77" value="Sel" style="text;whiteSpace=wrap;html=1;fontSize=10;" vertex="1" parent="1">
          <mxGeometry x="850" y="432" width="19.5" height="22" as="geometry" />
        </mxCell>
        <mxCell id="Pq5rJUgJ74eUQiSko-AU-84" value="" style="shape=trapezoid;perimeter=trapezoidPerimeter;whiteSpace=wrap;html=1;fixedSize=1;fontFamily=Helvetica;fontSize=11;fontColor=default;rotation=0;" vertex="1" parent="1">
          <mxGeometry x="940.88" y="720" width="68.25" height="29.5" as="geometry" />
        </mxCell>
        <mxCell id="Pq5rJUgJ74eUQiSko-AU-79" value="&lt;span style=&quot;color: rgb(0, 0, 0); font-family: Helvetica; font-size: 10px; font-style: normal; font-variant-ligatures: normal; font-variant-caps: normal; font-weight: 400; letter-spacing: normal; orphans: 2; text-align: center; text-indent: 0px; text-transform: none; widows: 2; word-spacing: 0px; -webkit-text-stroke-width: 0px; background-color: rgb(251, 251, 251); text-decoration-thickness: initial; text-decoration-style: initial; text-decoration-color: initial; float: none; display: inline !important;&quot;&gt;0&lt;/span&gt;" style="text;whiteSpace=wrap;html=1;fontSize=11;fontFamily=Helvetica;fontColor=default;direction=east;" vertex="1" parent="1">
          <mxGeometry x="955" y="729.5" width="10" height="20" as="geometry" />
        </mxCell>
        <mxCell id="Pq5rJUgJ74eUQiSko-AU-80" value="&lt;span style=&quot;color: rgb(0, 0, 0); font-family: Helvetica; font-size: 10px; font-style: normal; font-variant-ligatures: normal; font-variant-caps: normal; font-weight: 400; letter-spacing: normal; orphans: 2; text-align: center; text-indent: 0px; text-transform: none; widows: 2; word-spacing: 0px; -webkit-text-stroke-width: 0px; background-color: rgb(251, 251, 251); text-decoration-thickness: initial; text-decoration-style: initial; text-decoration-color: initial; float: none; display: inline !important;&quot;&gt;1&lt;/span&gt;" style="text;whiteSpace=wrap;html=1;fontSize=11;fontFamily=Helvetica;fontColor=default;direction=east;" vertex="1" parent="1">
          <mxGeometry x="980" y="729.5" width="10" height="20" as="geometry" />
        </mxCell>
        <mxCell id="Pq5rJUgJ74eUQiSko-AU-90" value="" style="endArrow=none;html=1;rounded=0;labelBackgroundColor=default;strokeColor=default;align=center;verticalAlign=middle;fontFamily=Helvetica;fontSize=11;fontColor=default;shape=connector;entryX=0.75;entryY=1;entryDx=0;entryDy=0;" edge="1" parent="1" target="Pq5rJUgJ74eUQiSko-AU-70">
          <mxGeometry width="50" height="50" relative="1" as="geometry">
            <mxPoint x="790" y="512" as="sourcePoint" />
            <mxPoint x="810" y="580" as="targetPoint" />
          </mxGeometry>
        </mxCell>
        <mxCell id="Pq5rJUgJ74eUQiSko-AU-91" value="" style="endArrow=none;html=1;rounded=0;labelBackgroundColor=default;strokeColor=default;align=center;verticalAlign=middle;fontFamily=Helvetica;fontSize=11;fontColor=default;shape=connector;" edge="1" parent="1">
          <mxGeometry width="50" height="50" relative="1" as="geometry">
            <mxPoint x="790" y="600" as="sourcePoint" />
            <mxPoint x="790" y="510" as="targetPoint" />
          </mxGeometry>
        </mxCell>
        <mxCell id="Pq5rJUgJ74eUQiSko-AU-92" value="" style="endArrow=none;html=1;rounded=0;labelBackgroundColor=default;strokeColor=default;align=center;verticalAlign=middle;fontFamily=Helvetica;fontSize=11;fontColor=default;shape=connector;" edge="1" parent="1">
          <mxGeometry width="50" height="50" relative="1" as="geometry">
            <mxPoint x="930" y="600" as="sourcePoint" />
            <mxPoint x="790" y="600" as="targetPoint" />
          </mxGeometry>
        </mxCell>
        <mxCell id="Pq5rJUgJ74eUQiSko-AU-93" value="" style="endArrow=none;html=1;rounded=0;labelBackgroundColor=default;strokeColor=default;align=center;verticalAlign=middle;fontFamily=Helvetica;fontSize=11;fontColor=default;shape=connector;" edge="1" parent="1">
          <mxGeometry width="50" height="50" relative="1" as="geometry">
            <mxPoint x="929.43" y="600" as="sourcePoint" />
            <mxPoint x="929.43" y="760" as="targetPoint" />
          </mxGeometry>
        </mxCell>
        <mxCell id="Pq5rJUgJ74eUQiSko-AU-94" value="" style="endArrow=none;html=1;rounded=0;labelBackgroundColor=default;strokeColor=default;align=center;verticalAlign=middle;fontFamily=Helvetica;fontSize=11;fontColor=default;shape=connector;" edge="1" parent="1">
          <mxGeometry width="50" height="50" relative="1" as="geometry">
            <mxPoint x="960" y="760" as="sourcePoint" />
            <mxPoint x="930" y="760" as="targetPoint" />
          </mxGeometry>
        </mxCell>
        <mxCell id="Pq5rJUgJ74eUQiSko-AU-95" value="" style="endArrow=none;html=1;rounded=0;labelBackgroundColor=default;strokeColor=default;align=center;verticalAlign=middle;fontFamily=Helvetica;fontSize=11;fontColor=default;shape=connector;exitX=0.5;exitY=1;exitDx=0;exitDy=0;" edge="1" parent="1" source="Pq5rJUgJ74eUQiSko-AU-79">
          <mxGeometry width="50" height="50" relative="1" as="geometry">
            <mxPoint x="970" y="770" as="sourcePoint" />
            <mxPoint x="960" y="760" as="targetPoint" />
          </mxGeometry>
        </mxCell>
        <mxCell id="Pq5rJUgJ74eUQiSko-AU-96" value="" style="shape=trapezoid;perimeter=trapezoidPerimeter;whiteSpace=wrap;html=1;fixedSize=1;fontFamily=Helvetica;fontSize=11;fontColor=default;rotation=-180;" vertex="1" parent="1">
          <mxGeometry x="889.14" y="790" width="119.99" height="29.5" as="geometry" />
        </mxCell>
        <mxCell id="Pq5rJUgJ74eUQiSko-AU-97" value="" style="endArrow=none;html=1;rounded=0;labelBackgroundColor=default;strokeColor=default;align=center;verticalAlign=middle;fontFamily=Helvetica;fontSize=11;fontColor=default;shape=connector;exitX=0.5;exitY=0;exitDx=0;exitDy=0;" edge="1" parent="1" source="Pq5rJUgJ74eUQiSko-AU-98">
          <mxGeometry width="50" height="50" relative="1" as="geometry">
            <mxPoint x="1020" y="820" as="sourcePoint" />
            <mxPoint x="985" y="750" as="targetPoint" />
          </mxGeometry>
        </mxCell>
        <mxCell id="Pq5rJUgJ74eUQiSko-AU-98" value="&lt;span style=&quot;color: rgb(0, 0, 0); font-family: Helvetica; font-size: 10px; font-style: normal; font-variant-ligatures: normal; font-variant-caps: normal; font-weight: 400; letter-spacing: normal; orphans: 2; text-align: center; text-indent: 0px; text-transform: none; widows: 2; word-spacing: 0px; -webkit-text-stroke-width: 0px; background-color: rgb(251, 251, 251); text-decoration-thickness: initial; text-decoration-style: initial; text-decoration-color: initial; float: none; display: inline !important;&quot;&gt;1&lt;/span&gt;" style="text;whiteSpace=wrap;html=1;fontSize=11;fontFamily=Helvetica;fontColor=default;direction=east;" vertex="1" parent="1">
          <mxGeometry x="980" y="790" width="10" height="20" as="geometry" />
        </mxCell>
        <mxCell id="Pq5rJUgJ74eUQiSko-AU-99" value="&lt;span style=&quot;color: rgb(0, 0, 0); font-family: Helvetica; font-size: 10px; font-style: normal; font-variant-ligatures: normal; font-variant-caps: normal; font-weight: 400; letter-spacing: normal; orphans: 2; text-align: center; text-indent: 0px; text-transform: none; widows: 2; word-spacing: 0px; -webkit-text-stroke-width: 0px; background-color: rgb(251, 251, 251); text-decoration-thickness: initial; text-decoration-style: initial; text-decoration-color: initial; float: none; display: inline !important;&quot;&gt;0&lt;/span&gt;" style="text;whiteSpace=wrap;html=1;fontSize=11;fontFamily=Helvetica;fontColor=default;direction=east;" vertex="1" parent="1">
          <mxGeometry x="907" y="790" width="10" height="20" as="geometry" />
        </mxCell>
        <mxCell id="Pq5rJUgJ74eUQiSko-AU-100" value="" style="endArrow=none;html=1;rounded=0;labelBackgroundColor=default;strokeColor=default;align=center;verticalAlign=middle;fontFamily=Helvetica;fontSize=11;fontColor=default;shape=connector;entryX=0;entryY=1;entryDx=0;entryDy=0;" edge="1" parent="1" target="Pq5rJUgJ74eUQiSko-AU-19">
          <mxGeometry width="50" height="50" relative="1" as="geometry">
            <mxPoint x="770" y="560" as="sourcePoint" />
            <mxPoint x="790" y="600" as="targetPoint" />
          </mxGeometry>
        </mxCell>
        <mxCell id="Pq5rJUgJ74eUQiSko-AU-101" value="" style="endArrow=none;html=1;rounded=0;labelBackgroundColor=default;strokeColor=default;align=center;verticalAlign=middle;fontFamily=Helvetica;fontSize=11;fontColor=default;shape=connector;" edge="1" parent="1">
          <mxGeometry width="50" height="50" relative="1" as="geometry">
            <mxPoint x="770" y="560" as="sourcePoint" />
            <mxPoint x="770" y="680" as="targetPoint" />
          </mxGeometry>
        </mxCell>
        <mxCell id="Pq5rJUgJ74eUQiSko-AU-103" value="" style="endArrow=none;html=1;rounded=0;labelBackgroundColor=default;strokeColor=default;align=center;verticalAlign=middle;fontFamily=Helvetica;fontSize=11;fontColor=default;shape=connector;" edge="1" parent="1">
          <mxGeometry width="50" height="50" relative="1" as="geometry">
            <mxPoint x="910" y="680" as="sourcePoint" />
            <mxPoint x="770" y="680" as="targetPoint" />
          </mxGeometry>
        </mxCell>
        <mxCell id="Pq5rJUgJ74eUQiSko-AU-104" value="" style="endArrow=none;html=1;rounded=0;labelBackgroundColor=default;strokeColor=default;align=center;verticalAlign=middle;fontFamily=Helvetica;fontSize=11;fontColor=default;shape=connector;entryX=0.25;entryY=0;entryDx=0;entryDy=0;" edge="1" parent="1" target="Pq5rJUgJ74eUQiSko-AU-99">
          <mxGeometry width="50" height="50" relative="1" as="geometry">
            <mxPoint x="910" y="680" as="sourcePoint" />
            <mxPoint x="780" y="690" as="targetPoint" />
          </mxGeometry>
        </mxCell>
        <mxCell id="Pq5rJUgJ74eUQiSko-AU-106" value="" style="endArrow=none;html=1;rounded=0;labelBackgroundColor=default;strokeColor=default;align=center;verticalAlign=middle;fontFamily=Helvetica;fontSize=11;fontColor=default;shape=connector;" edge="1" parent="1">
          <mxGeometry width="50" height="50" relative="1" as="geometry">
            <mxPoint x="763" y="625" as="sourcePoint" />
            <mxPoint x="783" y="615" as="targetPoint" />
          </mxGeometry>
        </mxCell>
        <mxCell id="Pq5rJUgJ74eUQiSko-AU-107" value="&lt;font style=&quot;font-size: 10px;&quot;&gt;16&lt;/font&gt;" style="text;whiteSpace=wrap;html=1;" vertex="1" parent="1">
          <mxGeometry x="774" y="614" width="23" height="17" as="geometry" />
        </mxCell>
        <mxCell id="Pq5rJUgJ74eUQiSko-AU-108" value="Mode" style="text;whiteSpace=wrap;html=1;fontSize=11;" vertex="1" parent="1">
          <mxGeometry x="833.5" y="790" width="36" height="26" as="geometry" />
        </mxCell>
        <mxCell id="Pq5rJUgJ74eUQiSko-AU-109" value="" style="endArrow=none;html=1;rounded=0;labelBackgroundColor=default;strokeColor=default;align=center;verticalAlign=middle;fontFamily=Helvetica;fontSize=11;fontColor=default;shape=connector;entryX=1;entryY=0.5;entryDx=0;entryDy=0;" edge="1" parent="1" target="Pq5rJUgJ74eUQiSko-AU-96">
          <mxGeometry width="50" height="50" relative="1" as="geometry">
            <mxPoint x="870" y="805" as="sourcePoint" />
            <mxPoint x="750" y="780" as="targetPoint" />
          </mxGeometry>
        </mxCell>
        <mxCell id="Pq5rJUgJ74eUQiSko-AU-110" value="Result" style="text;whiteSpace=wrap;html=1;fontSize=10;" vertex="1" parent="1">
          <mxGeometry x="984" y="760" width="36" height="26" as="geometry" />
        </mxCell>
        <mxCell id="Pq5rJUgJ74eUQiSko-AU-112" value="Enable" style="text;whiteSpace=wrap;html=1;fontSize=10;" vertex="1" parent="1">
          <mxGeometry x="1012" y="720" width="36" height="26" as="geometry" />
        </mxCell>
        <mxCell id="Pq5rJUgJ74eUQiSko-AU-117" value="" style="endArrow=none;html=1;rounded=0;labelBackgroundColor=default;strokeColor=default;align=center;verticalAlign=middle;fontFamily=Helvetica;fontSize=11;fontColor=default;shape=connector;exitX=1.016;exitY=0.149;exitDx=0;exitDy=0;exitPerimeter=0;" edge="1" parent="1">
          <mxGeometry width="50" height="50" relative="1" as="geometry">
            <mxPoint x="950.0000000000001" y="349.99999999999994" as="sourcePoint" />
            <mxPoint x="1070.6" y="350.06" as="targetPoint" />
          </mxGeometry>
        </mxCell>
        <mxCell id="Pq5rJUgJ74eUQiSko-AU-118" value="" style="endArrow=none;html=1;rounded=0;labelBackgroundColor=default;strokeColor=default;align=center;verticalAlign=middle;fontFamily=Helvetica;fontSize=11;fontColor=default;shape=connector;" edge="1" parent="1">
          <mxGeometry width="50" height="50" relative="1" as="geometry">
            <mxPoint x="1070" y="740" as="sourcePoint" />
            <mxPoint x="1070" y="350" as="targetPoint" />
          </mxGeometry>
        </mxCell>
        <mxCell id="Pq5rJUgJ74eUQiSko-AU-119" value="" style="endArrow=classic;html=1;rounded=0;labelBackgroundColor=default;strokeColor=default;align=center;verticalAlign=middle;fontFamily=Helvetica;fontSize=11;fontColor=default;shape=connector;entryX=0.866;entryY=0.339;entryDx=0;entryDy=0;entryPerimeter=0;" edge="1" parent="1">
          <mxGeometry width="50" height="50" relative="1" as="geometry">
            <mxPoint x="1070" y="739.26" as="sourcePoint" />
            <mxPoint x="999.9845000000003" y="739.2604999999999" as="targetPoint" />
          </mxGeometry>
        </mxCell>
        <mxCell id="Pq5rJUgJ74eUQiSko-AU-120" value="" style="endArrow=none;html=1;rounded=0;labelBackgroundColor=default;strokeColor=default;align=center;verticalAlign=middle;fontFamily=Helvetica;fontSize=11;fontColor=default;shape=connector;" edge="1" parent="1">
          <mxGeometry width="50" height="50" relative="1" as="geometry">
            <mxPoint x="950" y="840" as="sourcePoint" />
            <mxPoint x="950" y="820" as="targetPoint" />
          </mxGeometry>
        </mxCell>
        <mxCell id="Pq5rJUgJ74eUQiSko-AU-121" value="Fin" style="text;whiteSpace=wrap;html=1;fontSize=10;" vertex="1" parent="1">
          <mxGeometry x="954" y="819.5" width="30" height="20" as="geometry" />
        </mxCell>
        <mxCell id="Pq5rJUgJ74eUQiSko-AU-122" value="Result" style="text;whiteSpace=wrap;html=1;fontSize=10;" vertex="1" parent="1">
          <mxGeometry x="801" y="576" width="36" height="26" as="geometry" />
        </mxCell>
        <mxCell id="Pq5rJUgJ74eUQiSko-AU-123" value="" style="endArrow=none;html=1;rounded=0;labelBackgroundColor=default;strokeColor=default;align=center;verticalAlign=middle;fontFamily=Helvetica;fontSize=11;fontColor=default;shape=connector;exitX=0.5;exitY=0;exitDx=0;exitDy=0;entryX=0.5;entryY=1;entryDx=0;entryDy=0;" edge="1" parent="1" source="3a17f1ce550125da-8" target="Pq5rJUgJ74eUQiSko-AU-124">
          <mxGeometry width="50" height="50" relative="1" as="geometry">
            <mxPoint x="650" y="440" as="sourcePoint" />
            <mxPoint x="674" y="420" as="targetPoint" />
          </mxGeometry>
        </mxCell>
        <mxCell id="Pq5rJUgJ74eUQiSko-AU-124" value="Mode" style="text;whiteSpace=wrap;html=1;align=center;" vertex="1" parent="1">
          <mxGeometry x="652" y="400" width="43" height="26" as="geometry" />
        </mxCell>
        <mxCell id="Pq5rJUgJ74eUQiSko-AU-125" value="" style="endArrow=classic;html=1;rounded=0;labelBackgroundColor=default;strokeColor=default;align=center;verticalAlign=middle;fontFamily=Helvetica;fontSize=11;fontColor=default;shape=connector;" edge="1" parent="1" source="Pq5rJUgJ74eUQiSko-AU-127">
          <mxGeometry width="50" height="50" relative="1" as="geometry">
            <mxPoint x="740" y="365" as="sourcePoint" />
            <mxPoint x="800" y="360" as="targetPoint" />
          </mxGeometry>
        </mxCell>
        <mxCell id="Pq5rJUgJ74eUQiSko-AU-126" value="" style="endArrow=classic;html=1;rounded=0;labelBackgroundColor=default;strokeColor=default;align=center;verticalAlign=middle;fontFamily=Helvetica;fontSize=11;fontColor=default;shape=connector;entryX=0;entryY=0.75;entryDx=0;entryDy=0;exitX=1;exitY=0.5;exitDx=0;exitDy=0;" edge="1" parent="1" source="Pq5rJUgJ74eUQiSko-AU-128">
          <mxGeometry width="50" height="50" relative="1" as="geometry">
            <mxPoint x="740" y="390" as="sourcePoint" />
            <mxPoint x="797" y="390" as="targetPoint" />
          </mxGeometry>
        </mxCell>
        <mxCell id="Pq5rJUgJ74eUQiSko-AU-127" value="X_in" style="text;whiteSpace=wrap;html=1;fontSize=10;" vertex="1" parent="1">
          <mxGeometry x="710" y="350" width="30" height="20" as="geometry" />
        </mxCell>
        <mxCell id="Pq5rJUgJ74eUQiSko-AU-128" value="Y_in" style="text;whiteSpace=wrap;html=1;fontSize=10;" vertex="1" parent="1">
          <mxGeometry x="710" y="380" width="30" height="20" as="geometry" />
        </mxCell>
        <mxCell id="Pq5rJUgJ74eUQiSko-AU-130" value="" style="endArrow=classic;html=1;rounded=0;labelBackgroundColor=default;strokeColor=default;align=center;verticalAlign=middle;fontFamily=Helvetica;fontSize=11;fontColor=default;shape=connector;entryX=0.401;entryY=0.004;entryDx=0;entryDy=0;entryPerimeter=0;" edge="1" parent="1" target="3a17f1ce550125da-1">
          <mxGeometry width="50" height="50" relative="1" as="geometry">
            <mxPoint x="857" y="320" as="sourcePoint" />
            <mxPoint x="820" y="310" as="targetPoint" />
          </mxGeometry>
        </mxCell>
        <mxCell id="Pq5rJUgJ74eUQiSko-AU-131" value="rst" style="text;whiteSpace=wrap;html=1;fontSize=10;" vertex="1" parent="1">
          <mxGeometry x="850" y="300" width="16" height="20" as="geometry" />
        </mxCell>
        <mxCell id="Pq5rJUgJ74eUQiSko-AU-132" value="" style="endArrow=classic;html=1;rounded=0;labelBackgroundColor=default;strokeColor=default;align=center;verticalAlign=middle;fontFamily=Helvetica;fontSize=11;fontColor=default;shape=connector;entryX=0.614;entryY=0.02;entryDx=0;entryDy=0;entryPerimeter=0;" edge="1" parent="1" target="3a17f1ce550125da-1">
          <mxGeometry width="50" height="50" relative="1" as="geometry">
            <mxPoint x="889.14" y="310" as="sourcePoint" />
            <mxPoint x="889.14" y="335" as="targetPoint" />
          </mxGeometry>
        </mxCell>
        <mxCell id="Pq5rJUgJ74eUQiSko-AU-133" value="Mode" style="text;whiteSpace=wrap;html=1;fontSize=10;" vertex="1" parent="1">
          <mxGeometry x="877" y="290" width="33" height="20" as="geometry" />
        </mxCell>
        <mxCell id="Pq5rJUgJ74eUQiSko-AU-135" value="X_reg" style="text;whiteSpace=wrap;html=1;fontSize=10;" vertex="1" parent="1">
          <mxGeometry x="877" y="490" width="43" height="26" as="geometry" />
        </mxCell>
        <mxCell id="Pq5rJUgJ74eUQiSko-AU-137" value="X_mod" style="text;whiteSpace=wrap;html=1;fontSize=10;" vertex="1" parent="1">
          <mxGeometry x="977" y="694" width="43" height="26" as="geometry" />
        </mxCell>
        <mxCell id="Pq5rJUgJ74eUQiSko-AU-140" value="16" style="text;whiteSpace=wrap;html=1;" vertex="1" parent="1">
          <mxGeometry x="610" y="450" width="20" height="20" as="geometry" />
        </mxCell>
      </root>
    </mxGraphModel>
  </diagram>
</mxfile>
